<?xml version="1.0" encoding="UTF-8" standalone="no"?>
<!-- Generator: Adobe Illustrator 19.0.0, SVG Export Plug-In . SVG Version: 6.00 Build 0)  -->

<svg
   xmlns:dc="http://purl.org/dc/elements/1.1/"
   xmlns:cc="http://creativecommons.org/ns#"
   xmlns:rdf="http://www.w3.org/1999/02/22-rdf-syntax-ns#"
   xmlns:svg="http://www.w3.org/2000/svg"
   xmlns="http://www.w3.org/2000/svg"
   xmlns:sodipodi="http://sodipodi.sourceforge.net/DTD/sodipodi-0.dtd"
   xmlns:inkscape="http://www.inkscape.org/namespaces/inkscape"
   version="1.1"
   id="Capa_1"
   x="0px"
   y="0px"
   viewBox="0 0 160 160"
   xml:space="preserve"
   sodipodi:docname="clock.svg"
   width="160"
   height="160"
   inkscape:version="0.92.0 r15299"><metadata
     id="metadata65"><rdf:RDF><cc:Work
         rdf:about=""><dc:format>image/svg+xml</dc:format><dc:type
           rdf:resource="http://purl.org/dc/dcmitype/StillImage" /><dc:title></dc:title></cc:Work></rdf:RDF></metadata><defs
     id="defs63" /><sodipodi:namedview
     pagecolor="#ffffff"
     bordercolor="#666666"
     borderopacity="1"
     objecttolerance="10"
     gridtolerance="10"
     guidetolerance="10"
     inkscape:pageopacity="0"
     inkscape:pageshadow="2"
     inkscape:window-width="1366"
     inkscape:window-height="705"
     id="namedview61"
     showgrid="false"
     fit-margin-top="0"
     fit-margin-left="0"
     fit-margin-right="0"
     fit-margin-bottom="0"
     inkscape:zoom="4.0689655"
     inkscape:cx="-2.2118644"
     inkscape:cy="29.000001"
     inkscape:window-x="-8"
     inkscape:window-y="-8"
     inkscape:window-maximized="1"
     inkscape:current-layer="Capa_1" /><g
     id="g4571"
     transform="scale(2.7586207)"><circle
       id="circle2"
       r="29"
       cy="29"
       cx="29"
       style="fill:#e7eced" /><path
       id="path4"
       d="M 29,4 C 42.785,4 54,15.215 54,29 54,42.785 42.785,54 29,54 15.215,54 4,42.785 4,29 4,15.215 15.215,4 29,4 M 29,0 C 12.984,0 0,12.984 0,29 0,45.016 12.984,58 29,58 45.016,58 58,45.016 58,29 58,12.984 45.016,0 29,0 Z"
       style="fill:#424a60"
       inkscape:connector-curvature="0" /><g
       id="g22"><path
         id="path6"
         d="m 29,5.879 c -0.552,0 -1,0.447 -1,1 v 1 c 0,0.553 0.448,1 1,1 0.552,0 1,-0.447 1,-1 v -1 c 0,-0.553 -0.448,-1 -1,-1 z"
         style="fill:#7383bf"
         inkscape:connector-curvature="0" /><path
         id="path8"
         d="m 29,48.879 c -0.552,0 -1,0.447 -1,1 v 1 c 0,0.553 0.448,1 1,1 0.552,0 1,-0.447 1,-1 v -1 c 0,-0.553 -0.448,-1 -1,-1 z"
         style="fill:#7383bf"
         inkscape:connector-curvature="0" /><path
         id="path10"
         d="m 51,27.879 h -1 c -0.552,0 -1,0.447 -1,1 0,0.553 0.448,1 1,1 h 1 c 0.552,0 1,-0.447 1,-1 0,-0.553 -0.448,-1 -1,-1 z"
         style="fill:#7383bf"
         inkscape:connector-curvature="0" /><path
         id="path12"
         d="M 8,27.879 H 7 c -0.552,0 -1,0.447 -1,1 0,0.553 0.448,1 1,1 h 1 c 0.552,0 1,-0.447 1,-1 0,-0.553 -0.448,-1 -1,-1 z"
         style="fill:#7383bf"
         inkscape:connector-curvature="0" /><path
         id="path14"
         d="m 43.849,12.615 -0.707,0.707 c -0.391,0.391 -0.391,1.023 0,1.414 0.195,0.195 0.451,0.293 0.707,0.293 0.256,0 0.512,-0.098 0.707,-0.293 l 0.707,-0.707 c 0.391,-0.391 0.391,-1.023 0,-1.414 -0.391,-0.391 -1.023,-0.391 -1.414,0 z"
         style="fill:#7383bf"
         inkscape:connector-curvature="0" /><path
         id="path16"
         d="m 13.444,43.021 -0.707,0.707 c -0.391,0.391 -0.391,1.023 0,1.414 0.195,0.195 0.451,0.293 0.707,0.293 0.256,0 0.512,-0.098 0.707,-0.293 l 0.707,-0.707 c 0.391,-0.391 0.391,-1.023 0,-1.414 -0.391,-0.391 -1.024,-0.39 -1.414,0 z"
         style="fill:#7383bf"
         inkscape:connector-curvature="0" /><path
         id="path18"
         d="m 44.556,43.021 c -0.391,-0.391 -1.023,-0.391 -1.414,0 -0.391,0.391 -0.391,1.023 0,1.414 l 0.707,0.707 c 0.195,0.195 0.451,0.293 0.707,0.293 0.256,0 0.512,-0.098 0.707,-0.293 0.391,-0.391 0.391,-1.023 0,-1.414 z"
         style="fill:#7383bf"
         inkscape:connector-curvature="0" /><path
         id="path20"
         d="m 14.151,12.615 c -0.391,-0.391 -1.023,-0.391 -1.414,0 -0.391,0.391 -0.391,1.023 0,1.414 l 0.707,0.707 c 0.195,0.195 0.451,0.293 0.707,0.293 0.256,0 0.512,-0.098 0.707,-0.293 0.391,-0.391 0.391,-1.023 0,-1.414 z"
         style="fill:#7383bf"
         inkscape:connector-curvature="0" /></g><line
       id="line24"
       y2="28.879"
       x2="18"
       y1="28.879"
       x1="26"
       style="fill:none;stroke:#424a60;stroke-width:2;stroke-linecap:round;stroke-linejoin:round;stroke-miterlimit:10" /><line
       id="line26"
       y2="14.879"
       x2="29"
       y1="25.879"
       x1="29"
       style="fill:none;stroke:#424a60;stroke-width:2;stroke-linecap:round;stroke-linejoin:round;stroke-miterlimit:10" /><circle
       id="circle28"
       r="3"
       cy="28.879"
       cx="29"
       style="fill:none;stroke:#424a60;stroke-width:2;stroke-linecap:round;stroke-linejoin:round;stroke-miterlimit:10" /><g
       id="g30" /><g
       id="g32" /><g
       id="g34" /><g
       id="g36" /><g
       id="g38" /><g
       id="g40" /><g
       id="g42" /><g
       id="g44" /><g
       id="g46" /><g
       id="g48" /><g
       id="g50" /><g
       id="g52" /><g
       id="g54" /><g
       id="g56" /><g
       id="g58" /></g></svg>