<?xml version="1.0" encoding="UTF-8" standalone="no"?>
<!-- Generator: Adobe Illustrator 19.0.0, SVG Export Plug-In . SVG Version: 6.00 Build 0)  -->

<svg
   xmlns:dc="http://purl.org/dc/elements/1.1/"
   xmlns:cc="http://creativecommons.org/ns#"
   xmlns:rdf="http://www.w3.org/1999/02/22-rdf-syntax-ns#"
   xmlns:svg="http://www.w3.org/2000/svg"
   xmlns="http://www.w3.org/2000/svg"
   xmlns:sodipodi="http://sodipodi.sourceforge.net/DTD/sodipodi-0.dtd"
   xmlns:inkscape="http://www.inkscape.org/namespaces/inkscape"
   version="1.1"
   id="Capa_1"
   x="0px"
   y="0px"
   viewBox="0 0 160 160"
   xml:space="preserve"
   sodipodi:docname="globe.svg"
   width="160"
   height="160"
   inkscape:version="0.92.0 r15299"><metadata
     id="metadata41"><rdf:RDF><cc:Work
         rdf:about=""><dc:format>image/svg+xml</dc:format><dc:type
           rdf:resource="http://purl.org/dc/dcmitype/StillImage" /><dc:title></dc:title></cc:Work></rdf:RDF></metadata><defs
     id="defs39" /><sodipodi:namedview
     pagecolor="#ffffff"
     bordercolor="#666666"
     borderopacity="1"
     objecttolerance="10"
     gridtolerance="10"
     guidetolerance="10"
     inkscape:pageopacity="0"
     inkscape:pageshadow="2"
     inkscape:window-width="1366"
     inkscape:window-height="705"
     id="namedview37"
     showgrid="false"
     fit-margin-top="0"
     fit-margin-left="0"
     fit-margin-right="0"
     fit-margin-bottom="0"
     inkscape:zoom="4.0689655"
     inkscape:cx="-2.2118644"
     inkscape:cy="29"
     inkscape:window-x="-8"
     inkscape:window-y="-8"
     inkscape:window-maximized="1"
     inkscape:current-layer="Capa_1" /><circle
     style="fill:#7fabda;stroke-width:2.75862074"
     cx="80"
     cy="80"
     r="80"
     id="circle2" /><path
     style="fill:#1a9172;stroke-width:2.75862074"
     d="m 121.06759,12.375172 c 0.33379,-0.115862 0.60413,-0.308965 0.88275,-0.493793 C 109.75172,4.353103 95.387586,0 80,0 63.078621,0 47.395862,5.266207 34.471724,14.231724 c 0.06897,0.32 0.157242,0.637242 0.297931,0.94069 5.456552,11.757241 12.477242,31.713103 24.466207,36.311724 5.828966,2.234483 11.216552,1.393103 16.742069,4.09931 0.590345,0.286897 1.453793,0.96 1.823448,1.503449 2.808276,4.107586 1.191724,10.126896 3.977931,11.6 2.204138,1.164137 3.456552,3.544827 2.515862,5.853793 -3.842758,9.428965 -0.51862,20.212413 8.419311,27.61379 6.289655,5.20828 1.053793,17.28 -4.237242,26.75862 -1.892413,3.39035 1.48138,7.30483 5.136552,6.00552 5.782069,-2.05793 10.568277,-5.04 16.110347,-9.8069 8.03586,-6.91034 9.77379,-14.44138 17.73793,-20.30896 0.0883,-0.0635 0.15448,-0.14345 0.19034,-0.24828 2.03587,-5.969652 8.36138,-18.998618 1.97793,-22.317239 C 123.67172,79.142069 121.44276,70.17931 115.62759,64.071724 114.96,63.371034 114.01103,63.023448 113.05103,62.89931 105.92276,61.98069 102.71724,56.56 97.92,60.165517 c -3.591724,2.70069 -7.630345,1.056552 -8.882759,-3.260689 -0.408275,-1.406897 -1.128275,-2.662069 -3.713103,-3.459311 -1.964138,-0.604138 -2.918621,-2.830345 -2.212414,-4.75862 0.01104,-0.02759 0.01931,-0.05793 0.03035,-0.08552 0.946207,-2.576551 -4.383448,-2.184827 -7.092414,-1.732413 -0.758621,0.126896 1.817931,-2.937932 0.971035,-2.44138 -3.332414,1.966897 -7.467587,-1.428965 -7.291035,-5.293793 0.182069,-3.92 0.913104,-3.732414 7.633104,-4.504827 7.233103,-3.368276 10.733793,-0.913104 10.502069,7.36 4.471724,0.662068 6.033103,-1.313104 4.686896,-5.928276 -0.394483,-1.348966 -0.07724,-2.852414 0.777931,-3.964138 8.24276,-10.72 15.12552,-15.393104 27.73794,-19.72138 z"
     id="path4"
     inkscape:connector-curvature="0" /><g
     id="g6"
     transform="scale(2.7586207)" /><g
     id="g8"
     transform="scale(2.7586207)" /><g
     id="g10"
     transform="scale(2.7586207)" /><g
     id="g12"
     transform="scale(2.7586207)" /><g
     id="g14"
     transform="scale(2.7586207)" /><g
     id="g16"
     transform="scale(2.7586207)" /><g
     id="g18"
     transform="scale(2.7586207)" /><g
     id="g20"
     transform="scale(2.7586207)" /><g
     id="g22"
     transform="scale(2.7586207)" /><g
     id="g24"
     transform="scale(2.7586207)" /><g
     id="g26"
     transform="scale(2.7586207)" /><g
     id="g28"
     transform="scale(2.7586207)" /><g
     id="g30"
     transform="scale(2.7586207)" /><g
     id="g32"
     transform="scale(2.7586207)" /><g
     id="g34"
     transform="scale(2.7586207)" /></svg>