<?xml version="1.0" encoding="UTF-8" standalone="no"?>
<!-- Generator: Adobe Illustrator 19.0.0, SVG Export Plug-In . SVG Version: 6.00 Build 0)  -->

<svg
   xmlns:dc="http://purl.org/dc/elements/1.1/"
   xmlns:cc="http://creativecommons.org/ns#"
   xmlns:rdf="http://www.w3.org/1999/02/22-rdf-syntax-ns#"
   xmlns:svg="http://www.w3.org/2000/svg"
   xmlns="http://www.w3.org/2000/svg"
   xmlns:sodipodi="http://sodipodi.sourceforge.net/DTD/sodipodi-0.dtd"
   xmlns:inkscape="http://www.inkscape.org/namespaces/inkscape"
   version="1.1"
   id="Capa_1"
   x="0px"
   y="0px"
   viewBox="0 0 150.94339 160"
   xml:space="preserve"
   sodipodi:docname="idea.svg"
   width="150.94339"
   height="160"
   inkscape:version="0.92.0 r15299"><metadata
     id="metadata59"><rdf:RDF><cc:Work
         rdf:about=""><dc:format>image/svg+xml</dc:format><dc:type
           rdf:resource="http://purl.org/dc/dcmitype/StillImage" /><dc:title></dc:title></cc:Work></rdf:RDF></metadata><defs
     id="defs57" /><sodipodi:namedview
     pagecolor="#ffffff"
     bordercolor="#666666"
     borderopacity="1"
     objecttolerance="10"
     gridtolerance="10"
     guidetolerance="10"
     inkscape:pageopacity="0"
     inkscape:pageshadow="2"
     inkscape:window-width="1366"
     inkscape:window-height="705"
     id="namedview55"
     showgrid="false"
     fit-margin-top="0"
     fit-margin-left="0"
     fit-margin-right="0"
     fit-margin-bottom="0"
     inkscape:zoom="1.1132075"
     inkscape:cx="56.658293"
     inkscape:cy="59.079642"
     inkscape:window-x="-8"
     inkscape:window-y="-8"
     inkscape:window-maximized="1"
     inkscape:current-layer="Capa_1" /><g
     id="g4547"
     transform="matrix(3.0188679,0,0,3.0188679,-4.5283018,0)"><path
       id="path2"
       d="m 26.5,9 c -8.837,0 -16,7.164 -16,16 0,7.089 4.615,13.091 11,15.192 V 50 h 2 v 3 h 6 v -3 h 2 v -9.808 c 6.385,-2.101 11,-8.103 11,-15.192 0,-8.836 -7.163,-16 -16,-16 z"
       style="fill:#efce4a"
       inkscape:connector-curvature="0" /><g
       id="g18"><path
         id="path4"
         d="m 26.5,0 c -0.553,0 -1,0.447 -1,1 v 4 c 0,0.553 0.447,1 1,1 0.553,0 1,-0.447 1,-1 V 1 c 0,-0.553 -0.447,-1 -1,-1 z"
         style="fill:#efce4a"
         inkscape:connector-curvature="0" /><path
         id="path6"
         d="m 50.5,24 h -4 c -0.553,0 -1,0.447 -1,1 0,0.553 0.447,1 1,1 h 4 c 0.553,0 1,-0.447 1,-1 0,-0.553 -0.447,-1 -1,-1 z"
         style="fill:#efce4a"
         inkscape:connector-curvature="0" /><path
         id="path8"
         d="m 6.5,24 h -4 c -0.553,0 -1,0.447 -1,1 0,0.553 0.447,1 1,1 h 4 c 0.553,0 1,-0.447 1,-1 0,-0.553 -0.447,-1 -1,-1 z"
         style="fill:#efce4a"
         inkscape:connector-curvature="0" /><path
         id="path10"
         d="m 42.764,7.322 -2.828,2.828 c -0.391,0.391 -0.391,1.023 0,1.414 0.195,0.195 0.451,0.293 0.707,0.293 0.256,0 0.512,-0.098 0.707,-0.293 l 2.828,-2.828 c 0.391,-0.391 0.391,-1.023 0,-1.414 -0.391,-0.391 -1.024,-0.39 -1.414,0 z"
         style="fill:#efce4a"
         inkscape:connector-curvature="0" /><path
         id="path12"
         d="m 11.65,38.436 -2.828,2.828 c -0.391,0.391 -0.391,1.023 0,1.414 0.195,0.195 0.451,0.293 0.707,0.293 0.256,0 0.512,-0.098 0.707,-0.293 l 2.828,-2.828 c 0.391,-0.391 0.391,-1.023 0,-1.414 -0.391,-0.391 -1.023,-0.391 -1.414,0 z"
         style="fill:#efce4a"
         inkscape:connector-curvature="0" /><path
         id="path14"
         d="m 41.35,38.436 c -0.391,-0.391 -1.023,-0.391 -1.414,0 -0.391,0.391 -0.391,1.023 0,1.414 l 2.828,2.828 c 0.195,0.195 0.451,0.293 0.707,0.293 0.256,0 0.512,-0.098 0.707,-0.293 0.391,-0.391 0.391,-1.023 0,-1.414 z"
         style="fill:#efce4a"
         inkscape:connector-curvature="0" /><path
         id="path16"
         d="m 10.236,7.322 c -0.391,-0.391 -1.023,-0.391 -1.414,0 -0.391,0.391 -0.391,1.023 0,1.414 l 2.828,2.828 c 0.195,0.195 0.451,0.293 0.707,0.293 0.256,0 0.512,-0.098 0.707,-0.293 0.391,-0.391 0.391,-1.023 0,-1.414 z"
         style="fill:#efce4a"
         inkscape:connector-curvature="0" /></g><path
       id="path20"
       d="m 15.5,26 c -0.553,0 -1,-0.447 -1,-1 0,-6.617 5.383,-12 12,-12 0.553,0 1,0.447 1,1 0,0.553 -0.447,1 -1,1 -5.514,0 -10,4.486 -10,10 0,0.553 -0.447,1 -1,1 z"
       style="fill:#f7e6a1"
       inkscape:connector-curvature="0" /><polygon
       id="polygon22"
       points="23.5,53 29.5,53 29.5,50 31.5,50 31.5,43 21.5,43 21.5,50 23.5,50 "
       style="fill:#556080" /></g><g
     id="g24"
     transform="translate(-1.4999999,107)" /><g
     id="g26"
     transform="translate(-1.4999999,107)" /><g
     id="g28"
     transform="translate(-1.4999999,107)" /><g
     id="g30"
     transform="translate(-1.4999999,107)" /><g
     id="g32"
     transform="translate(-1.4999999,107)" /><g
     id="g34"
     transform="translate(-1.4999999,107)" /><g
     id="g36"
     transform="translate(-1.4999999,107)" /><g
     id="g38"
     transform="translate(-1.4999999,107)" /><g
     id="g40"
     transform="translate(-1.4999999,107)" /><g
     id="g42"
     transform="translate(-1.4999999,107)" /><g
     id="g44"
     transform="translate(-1.4999999,107)" /><g
     id="g46"
     transform="translate(-1.4999999,107)" /><g
     id="g48"
     transform="translate(-1.4999999,107)" /><g
     id="g50"
     transform="translate(-1.4999999,107)" /><g
     id="g52"
     transform="translate(-1.4999999,107)" /></svg>