<?xml version="1.0" encoding="UTF-8" standalone="no"?>
<!-- Generator: Adobe Illustrator 19.0.0, SVG Export Plug-In . SVG Version: 6.00 Build 0)  -->

<svg
   xmlns:dc="http://purl.org/dc/elements/1.1/"
   xmlns:cc="http://creativecommons.org/ns#"
   xmlns:rdf="http://www.w3.org/1999/02/22-rdf-syntax-ns#"
   xmlns:svg="http://www.w3.org/2000/svg"
   xmlns="http://www.w3.org/2000/svg"
   xmlns:sodipodi="http://sodipodi.sourceforge.net/DTD/sodipodi-0.dtd"
   xmlns:inkscape="http://www.inkscape.org/namespaces/inkscape"
   version="1.1"
   id="Capa_1"
   x="0px"
   y="0px"
   viewBox="0 0 160 160"
   xml:space="preserve"
   sodipodi:docname="list.svg"
   width="160"
   height="160"
   inkscape:version="0.92.0 r15299"><metadata
     id="metadata53"><rdf:RDF><cc:Work
         rdf:about=""><dc:format>image/svg+xml</dc:format><dc:type
           rdf:resource="http://purl.org/dc/dcmitype/StillImage" /><dc:title></dc:title></cc:Work></rdf:RDF></metadata><defs
     id="defs51" /><sodipodi:namedview
     pagecolor="#ffffff"
     bordercolor="#666666"
     borderopacity="1"
     objecttolerance="10"
     gridtolerance="10"
     guidetolerance="10"
     inkscape:pageopacity="0"
     inkscape:pageshadow="2"
     inkscape:window-width="1366"
     inkscape:window-height="705"
     id="namedview49"
     showgrid="false"
     inkscape:zoom="1.0172414"
     inkscape:cx="-50.885081"
     inkscape:cy="-25.045703"
     inkscape:window-x="-8"
     inkscape:window-y="-8"
     inkscape:window-maximized="1"
     inkscape:current-layer="Capa_1" /><g
     id="g4553"
     transform="scale(2.7586207)"><polygon
       id="polygon2"
       points="6.5,0 6.5,58 51.5,58 51.5,14 37.5,0 "
       style="fill:#edeada" /><polygon
       id="polygon4"
       points="37.5,14 51.5,14 37.5,0 "
       style="fill:#cec9ae" /><path
       id="path6"
       d="m 41.5,22 h -16 c -0.552,0 -1,-0.447 -1,-1 0,-0.553 0.448,-1 1,-1 h 16 c 0.552,0 1,0.447 1,1 0,0.553 -0.448,1 -1,1 z"
       style="fill:#cec9ae"
       inkscape:connector-curvature="0" /><path
       id="path8"
       d="m 17.5,23 c -0.257,0 -0.514,-0.099 -0.708,-0.293 l -2,-2 c -0.391,-0.391 -0.391,-1.023 0,-1.414 0.391,-0.391 1.023,-0.391 1.414,0 l 1.367,1.367 4.301,-3.441 c 0.43,-0.345 1.061,-0.275 1.405,0.156 0.345,0.432 0.275,1.061 -0.156,1.406 l -5,4 C 17.941,22.928 17.72,23 17.5,23 Z"
       style="fill:#14a085"
       inkscape:connector-curvature="0" /><path
       id="path10"
       d="m 41.5,33 h -16 c -0.552,0 -1,-0.447 -1,-1 0,-0.553 0.448,-1 1,-1 h 16 c 0.552,0 1,0.447 1,1 0,0.553 -0.448,1 -1,1 z"
       style="fill:#cec9ae"
       inkscape:connector-curvature="0" /><path
       id="path12"
       d="m 17.5,34 c -0.257,0 -0.514,-0.099 -0.708,-0.293 l -2,-2 c -0.391,-0.391 -0.391,-1.023 0,-1.414 0.391,-0.391 1.023,-0.391 1.414,0 l 1.367,1.367 4.301,-3.441 c 0.43,-0.345 1.061,-0.275 1.405,0.156 0.345,0.432 0.275,1.061 -0.156,1.406 l -5,4 C 17.941,33.928 17.72,34 17.5,34 Z"
       style="fill:#14a085"
       inkscape:connector-curvature="0" /><path
       id="path14"
       d="m 41.5,44 h -16 c -0.552,0 -1,-0.447 -1,-1 0,-0.553 0.448,-1 1,-1 h 16 c 0.552,0 1,0.447 1,1 0,0.553 -0.448,1 -1,1 z"
       style="fill:#cec9ae"
       inkscape:connector-curvature="0" /><path
       id="path16"
       d="m 17.5,45 c -0.257,0 -0.514,-0.099 -0.708,-0.293 l -2,-2 c -0.391,-0.391 -0.391,-1.023 0,-1.414 0.391,-0.391 1.023,-0.391 1.414,0 l 1.367,1.367 4.301,-3.441 c 0.43,-0.345 1.061,-0.275 1.405,0.156 0.345,0.432 0.275,1.061 -0.156,1.406 l -5,4 C 17.941,44.928 17.72,45 17.5,45 Z"
       style="fill:#14a085"
       inkscape:connector-curvature="0" /><g
       id="g18" /><g
       id="g20" /><g
       id="g22" /><g
       id="g24" /><g
       id="g26" /><g
       id="g28" /><g
       id="g30" /><g
       id="g32" /><g
       id="g34" /><g
       id="g36" /><g
       id="g38" /><g
       id="g40" /><g
       id="g42" /><g
       id="g44" /><g
       id="g46" /></g></svg>