<?xml version="1.0" encoding="UTF-8" standalone="no"?>
<!-- Generator: Adobe Illustrator 19.0.0, SVG Export Plug-In . SVG Version: 6.00 Build 0)  -->

<svg
   xmlns:dc="http://purl.org/dc/elements/1.1/"
   xmlns:cc="http://creativecommons.org/ns#"
   xmlns:rdf="http://www.w3.org/1999/02/22-rdf-syntax-ns#"
   xmlns:svg="http://www.w3.org/2000/svg"
   xmlns="http://www.w3.org/2000/svg"
   xmlns:sodipodi="http://sodipodi.sourceforge.net/DTD/sodipodi-0.dtd"
   xmlns:inkscape="http://www.inkscape.org/namespaces/inkscape"
   version="1.1"
   id="Capa_1"
   x="0px"
   y="0px"
   viewBox="0 0 160 156.98114"
   xml:space="preserve"
   sodipodi:docname="USB.svg"
   width="160"
   height="156.98114"
   inkscape:version="0.92.0 r15299"><metadata
     id="metadata75"><rdf:RDF><cc:Work
         rdf:about=""><dc:format>image/svg+xml</dc:format><dc:type
           rdf:resource="http://purl.org/dc/dcmitype/StillImage" /><dc:title></dc:title></cc:Work></rdf:RDF></metadata><defs
     id="defs73" /><sodipodi:namedview
     pagecolor="#ffffff"
     bordercolor="#666666"
     borderopacity="1"
     objecttolerance="10"
     gridtolerance="10"
     guidetolerance="10"
     inkscape:pageopacity="0"
     inkscape:pageshadow="2"
     inkscape:window-width="1366"
     inkscape:window-height="705"
     id="namedview71"
     showgrid="false"
     fit-margin-top="0"
     fit-margin-left="0"
     fit-margin-right="0"
     fit-margin-bottom="0"
     inkscape:zoom="4.4528302"
     inkscape:cx="26.5"
     inkscape:cy="124.81356"
     inkscape:window-x="-8"
     inkscape:window-y="-8"
     inkscape:window-maximized="1"
     inkscape:current-layer="Capa_1" /><rect
     x="132.83018"
     y="33.20755"
     style="fill:#afb6bb;stroke-width:3.01886797"
     width="24.150944"
     height="21.132076"
     id="rect2" /><path
     style="fill:#38454f;stroke-width:3.01886797"
     d="M 129.81132,54.339624 V 70.05585 c 0,1.325283 1.07472,2.396981 2.39698,2.396981 h 6.65962 v -6.037736 h 12.07548 v 6.037736 h 6.65962 C 158.9283,72.452831 160,71.378114 160,70.05585 V 54.339624 Z"
     id="path4"
     inkscape:connector-curvature="0" /><circle
     style="fill:none;stroke:#38454f;stroke-width:6.03773594;stroke-miterlimit:10"
     cx="75.471695"
     cy="117.73585"
     r="36.226414"
     id="circle6" /><path
     style="fill:none;stroke:#38454f;stroke-width:6.03773594;stroke-miterlimit:10"
     d="m 15.09434,45.28302 v 52.872452 -2.937358 c 0,32.467926 26.276226,58.744146 58.744151,58.744146 38.967549,0 71.067169,-22.47245 71.067169,-61.436976 V 78.490567"
     id="path8"
     inkscape:connector-curvature="0" /><path
     style="fill:#546a79;stroke-width:3.01886797"
     d="m 144.90566,81.509435 v 0 c -3.33585,0 -6.03774,-2.701887 -6.03774,-6.037736 v -9.056604 h 12.07548 v 9.056604 c 0,3.335849 -2.70189,6.037736 -6.03774,6.037736 z"
     id="path10"
     inkscape:connector-curvature="0" /><path
     style="fill:#546a79;stroke-width:3.01886797"
     d="m 144.90566,81.509435 v 0 c -3.33585,0 -6.03774,-2.701887 -6.03774,-6.037736 v -9.056604 h 12.07548 v 9.056604 c 0,3.335849 -2.70189,6.037736 -6.03774,6.037736 z"
     id="path12"
     inkscape:connector-curvature="0" /><path
     style="fill:#546a79;stroke-width:3.01886797"
     d="m 144.90566,81.509435 v 0 c -3.33585,0 -6.03774,-2.701887 -6.03774,-6.037736 v -9.056604 h 12.07548 v 9.056604 c 0,3.335849 -2.70189,6.037736 -6.03774,6.037736 z"
     id="path14"
     inkscape:connector-curvature="0" /><path
     style="fill:#546a79;stroke-width:3.01886797"
     d="m 144.90566,81.509435 v 0 c -3.33585,0 -6.03774,-2.701887 -6.03774,-6.037736 v -9.056604 h 12.07548 v 9.056604 c 0,3.335849 -2.70189,6.037736 -6.03774,6.037736 z"
     id="path16"
     inkscape:connector-curvature="0" /><circle
     style="fill:none;stroke:#38454f;stroke-width:6.03773594;stroke-miterlimit:10"
     cx="75.471695"
     cy="108.67924"
     r="45.28302"
     id="circle18" /><rect
     x="135.84906"
     y="39.245285"
     style="fill:#e7eced;stroke-width:3.01886797"
     width="6.0377359"
     height="6.0377359"
     id="rect20" /><rect
     x="147.92453"
     y="39.245285"
     style="fill:#e7eced;stroke-width:3.01886797"
     width="6.0377359"
     height="6.0377359"
     id="rect22" /><rect
     x="3.018868"
     y="0"
     style="fill:#afb6bb;stroke-width:3.01886797"
     width="24.150944"
     height="21.132076"
     id="rect24" /><path
     style="fill:#38454f;stroke-width:3.01886797"
     d="m 0,21.132076 v 15.716227 c 0,1.322264 1.074717,2.396981 2.3969811,2.396981 H 9.0566038 V 33.207548 H 21.132075 v 6.037736 h 6.659623 c 1.322264,0 2.396981,-1.074717 2.396981,-2.396981 V 21.132076 Z"
     id="path26"
     inkscape:connector-curvature="0" /><path
     style="fill:#546a79;stroke-width:3.01886797"
     d="m 15.09434,48.301888 v 0 c -3.335849,0 -6.0377362,-2.701887 -6.0377362,-6.037736 V 33.207548 H 21.132075 v 9.056604 c 0,3.335849 -2.701886,6.037736 -6.037735,6.037736 z"
     id="path28"
     inkscape:connector-curvature="0" /><path
     style="fill:#546a79;stroke-width:3.01886797"
     d="m 15.09434,48.301888 v 0 c -3.335849,0 -6.0377362,-2.701887 -6.0377362,-6.037736 V 33.207548 H 21.132075 v 9.056604 c 0,3.335849 -2.701886,6.037736 -6.037735,6.037736 z"
     id="path30"
     inkscape:connector-curvature="0" /><path
     style="fill:#546a79;stroke-width:3.01886797"
     d="m 15.09434,48.301888 v 0 c -3.335849,0 -6.0377362,-2.701887 -6.0377362,-6.037736 V 33.207548 H 21.132075 v 9.056604 c 0,3.335849 -2.701886,6.037736 -6.037735,6.037736 z"
     id="path32"
     inkscape:connector-curvature="0" /><path
     style="fill:#546a79;stroke-width:3.01886797"
     d="m 15.09434,48.301888 v 0 c -3.335849,0 -6.0377362,-2.701887 -6.0377362,-6.037736 V 33.207548 H 21.132075 v 9.056604 c 0,3.335849 -2.701886,6.037736 -6.037735,6.037736 z"
     id="path34"
     inkscape:connector-curvature="0" /><rect
     x="6.0377359"
     y="6.037735"
     style="fill:#e7eced;stroke-width:3.01886797"
     width="6.0377359"
     height="6.0377359"
     id="rect36" /><rect
     x="18.113207"
     y="6.037735"
     style="fill:#e7eced;stroke-width:3.01886797"
     width="6.0377359"
     height="6.0377359"
     id="rect38" /><g
     id="g40"
     transform="matrix(3.0188679,0,0,3.0188679,0,-1.5094375)" /><g
     id="g42"
     transform="matrix(3.0188679,0,0,3.0188679,0,-1.5094375)" /><g
     id="g44"
     transform="matrix(3.0188679,0,0,3.0188679,0,-1.5094375)" /><g
     id="g46"
     transform="matrix(3.0188679,0,0,3.0188679,0,-1.5094375)" /><g
     id="g48"
     transform="matrix(3.0188679,0,0,3.0188679,0,-1.5094375)" /><g
     id="g50"
     transform="matrix(3.0188679,0,0,3.0188679,0,-1.5094375)" /><g
     id="g52"
     transform="matrix(3.0188679,0,0,3.0188679,0,-1.5094375)" /><g
     id="g54"
     transform="matrix(3.0188679,0,0,3.0188679,0,-1.5094375)" /><g
     id="g56"
     transform="matrix(3.0188679,0,0,3.0188679,0,-1.5094375)" /><g
     id="g58"
     transform="matrix(3.0188679,0,0,3.0188679,0,-1.5094375)" /><g
     id="g60"
     transform="matrix(3.0188679,0,0,3.0188679,0,-1.5094375)" /><g
     id="g62"
     transform="matrix(3.0188679,0,0,3.0188679,0,-1.5094375)" /><g
     id="g64"
     transform="matrix(3.0188679,0,0,3.0188679,0,-1.5094375)" /><g
     id="g66"
     transform="matrix(3.0188679,0,0,3.0188679,0,-1.5094375)" /><g
     id="g68"
     transform="matrix(3.0188679,0,0,3.0188679,0,-1.5094375)" /></svg>