<?xml version="1.0" encoding="UTF-8" standalone="no"?>
<!-- Created with Inkscape (http://www.inkscape.org/) -->

<svg
   xmlns:dc="http://purl.org/dc/elements/1.1/"
   xmlns:cc="http://creativecommons.org/ns#"
   xmlns:rdf="http://www.w3.org/1999/02/22-rdf-syntax-ns#"
   xmlns:svg="http://www.w3.org/2000/svg"
   xmlns="http://www.w3.org/2000/svg"
   xmlns:xlink="http://www.w3.org/1999/xlink"
   xmlns:sodipodi="http://sodipodi.sourceforge.net/DTD/sodipodi-0.dtd"
   xmlns:inkscape="http://www.inkscape.org/namespaces/inkscape"
   width="26.458334mm"
   height="31.689396mm"
   viewBox="0 0 26.458334 31.689396"
   version="1.1"
   id="svg5931"
   inkscape:version="0.92.0 r15299"
   sodipodi:docname="Joanne.svg">
  <defs
     id="defs5925">
    <linearGradient
       x1="0"
       y1="0"
       x2="1"
       y2="0"
       gradientUnits="userSpaceOnUse"
       gradientTransform="matrix(0,-43.690659,-43.690659,0,489.56494,221.42065)"
       spreadMethod="pad"
       id="linearGradient9580">
      <stop
         style="stop-opacity:1;stop-color:#3a1e0b"
         offset="0"
         id="stop9572" />
      <stop
         style="stop-opacity:1;stop-color:#3a1e0b"
         offset="0.326316"
         id="stop9574" />
      <stop
         style="stop-opacity:1;stop-color:#3a1e0b"
         offset="0.77670697"
         id="stop9576" />
      <stop
         style="stop-opacity:1;stop-color:#904f22"
         offset="1"
         id="stop9578" />
    </linearGradient>
    <linearGradient
       inkscape:collect="always"
       xlink:href="#linearGradient9580"
       id="linearGradient6906"
       gradientUnits="userSpaceOnUse"
       x1="510.65607"
       y1="459.86115"
       x2="488.07263"
       y2="300.99832" />
    <linearGradient
       inkscape:collect="always"
       xlink:href="#linearGradient9580"
       id="linearGradient6908"
       gradientUnits="userSpaceOnUse"
       x1="510.65607"
       y1="459.86115"
       x2="488.07263"
       y2="300.99832" />
    <linearGradient
       inkscape:collect="always"
       xlink:href="#linearGradient9580"
       id="linearGradient6910"
       gradientUnits="userSpaceOnUse"
       x1="510.65607"
       y1="459.86115"
       x2="488.07263"
       y2="300.99832" />
    <linearGradient
       inkscape:collect="always"
       xlink:href="#linearGradient9580"
       id="linearGradient6912"
       gradientUnits="userSpaceOnUse"
       x1="510.65607"
       y1="459.86115"
       x2="488.07263"
       y2="300.99832" />
  </defs>
  <sodipodi:namedview
     id="base"
     pagecolor="#ffffff"
     bordercolor="#666666"
     borderopacity="1.0"
     inkscape:pageopacity="0.0"
     inkscape:pageshadow="2"
     inkscape:zoom="2.8"
     inkscape:cx="-26.779047"
     inkscape:cy="45.82317"
     inkscape:document-units="mm"
     inkscape:current-layer="layer1"
     showgrid="false"
     fit-margin-top="0"
     fit-margin-left="0"
     fit-margin-right="0"
     fit-margin-bottom="0"
     inkscape:window-width="1366"
     inkscape:window-height="705"
     inkscape:window-x="-8"
     inkscape:window-y="-8"
     inkscape:window-maximized="1" />
  <metadata
     id="metadata5928">
    <rdf:RDF>
      <cc:Work
         rdf:about="">
        <dc:format>image/svg+xml</dc:format>
        <dc:type
           rdf:resource="http://purl.org/dc/dcmitype/StillImage" />
        <dc:title />
      </cc:Work>
    </rdf:RDF>
  </metadata>
  <g
     inkscape:label="Layer 1"
     inkscape:groupmode="layer"
     id="layer1"
     transform="translate(-59.720237,-117.11364)">
    <g
       style="fill:#3a1e0b;fill-opacity:1"
       transform="matrix(0.19195399,0,0,-0.19195399,-21.040021,204.27373)"
       id="g5103">
      <g
         style="fill:#3a1e0b;fill-opacity:1"
         id="g5101">
        <g
           style="fill:#3a1e0b;fill-opacity:1"
           id="g5099">
          <g
             style="fill:#3a1e0b;fill-opacity:1"
             id="g5097">
            <path
               inkscape:connector-curvature="0"
               id="path5095"
               style="fill:#3a1e0b;fill-opacity:1;stroke:none"
               d="m 492.534,377.046 c -9.265,-16.879 -12.203,-37.136 -8.118,-55.951 v 0 c 1.588,-7.31 4.325,-14.605 9.472,-20.034 v 0 c 5.147,-5.428 13.077,-8.651 20.293,-6.679 v 0 c 6.155,1.682 10.9,6.83 13.586,12.619 v 0 c 2.687,5.788 3.602,12.218 4.378,18.551 v 0 c 1.694,13.839 2.87,27.741 3.525,41.668 v 0 c 0.482,10.248 4.756,31.547 0.434,40.87 v 0 c -1.158,2.499 -2.986,3.565 -5.253,3.565 v 0 c -11.56,-0.002 -34.535,-27.719 -38.317,-34.609" />
          </g>
        </g>
      </g>
    </g>
    <g
       style="fill:#3a1e0b;fill-opacity:1"
       transform="matrix(0.19195399,0,0,-0.19195399,-21.040021,204.27373)"
       id="g5113">
      <g
         style="fill:#3a1e0b;fill-opacity:1"
         id="g5111">
        <g
           style="fill:#3a1e0b;fill-opacity:1"
           id="g5109">
          <g
             style="fill:#3a1e0b;fill-opacity:1"
             id="g5107">
            <path
               inkscape:connector-curvature="0"
               id="path5105"
               style="fill:#3a1e0b;fill-opacity:1;stroke:none"
               d="m 441.4,408.09 c -4.32,-9.323 -0.047,-30.622 0.435,-40.87 v 0 c 0.655,-13.927 1.83,-27.829 3.526,-41.668 v 0 c 0.775,-6.333 1.691,-12.763 4.377,-18.551 v 0 c 2.687,-5.789 7.43,-10.937 13.586,-12.619 v 0 c 7.216,-1.972 15.147,1.251 20.294,6.679 v 0 c 5.146,5.429 7.883,12.724 9.47,20.034 v 0 c 4.086,18.815 1.148,39.072 -8.117,55.951 v 0 c -3.782,6.89 -26.756,34.607 -38.317,34.609 v 0 c -2.268,0 -4.095,-1.066 -5.254,-3.565" />
          </g>
        </g>
      </g>
    </g>
    <g
       style="fill:#3a1e0b;fill-opacity:1"
       transform="matrix(0.19195399,0,0,-0.19195399,82.075668,125.76328)"
       id="g5117">
      <path
         inkscape:connector-curvature="0"
         id="path5115"
         style="fill:#3a1e0b;fill-opacity:1;fill-rule:nonzero;stroke:none"
         d="m 0,0 c -0.682,9.448 -3.303,18.972 -9.114,26.785 -8.577,11.531 -24.067,18.276 -39.241,18.276 -15.175,0 -30.665,-6.745 -39.242,-18.276 C -93.408,18.972 -96.029,9.448 -96.711,0 c -0.19,-2.629 -0.924,-6.992 -0.001,-11.826 4.662,-24.422 19.505,-42.611 44.709,-45.461 1.357,-0.153 2.584,-0.237 3.648,-0.237 1.063,0 2.29,0.084 3.647,0.237 25.204,2.85 38.451,19.009 44.709,45.461 C 1.134,-7.037 0.19,-2.629 0,0" />
    </g>
    <g
       transform="matrix(0.19195399,0,0,-0.19195399,83.509544,143.98326)"
       id="g5121">
      <path
         inkscape:connector-curvature="0"
         id="path5119"
         style="fill:#f7d9b5;fill-opacity:1;fill-rule:nonzero;stroke:none"
         d="m 0,0 c -2.54,2.022 -5.469,3.506 -8.569,4.473 l -28.917,9.017 c -2.072,0.627 -3.223,2.533 -3.593,4.666 -1.044,6.033 -0.921,21.931 -0.893,24.521 0.002,0.203 -0.162,0.359 -0.366,0.359 h -25.514 c -0.203,0 -0.367,-0.156 -0.365,-0.36 0.024,-2.563 0.128,-18.169 -0.893,-24.52 -0.344,-2.138 -1.521,-4.039 -3.593,-4.666 L -101.7,4.448 c -2.668,-0.832 -5.229,-2.02 -7.48,-3.676 -11.761,-8.654 -12.099,-22.817 -12.587,-25.452 -0.042,-0.226 0.131,-0.429 0.36,-0.429 h 66.312 66.313 c 0.229,0 0.402,0.203 0.36,0.429 C 11.105,-22.122 10.932,-8.7 0,0" />
    </g>
    <g
       transform="matrix(0.19195399,0,0,-0.19195399,83.509544,143.98326)"
       id="g5125">
      <path
         inkscape:connector-curvature="0"
         id="path5123"
         style="fill:#f7d9b5;fill-opacity:1;fill-rule:nonzero;stroke:none"
         d="m 0,0 c -2.54,2.022 -5.469,3.506 -8.569,4.473 l -28.917,9.017 c -2.072,0.627 -3.223,2.533 -3.593,4.666 -1.044,6.033 -0.921,21.931 -0.893,24.521 0.002,0.203 -0.162,0.359 -0.366,0.359 h -25.514 c -0.203,0 -0.367,-0.156 -0.365,-0.36 0.024,-2.563 0.128,-18.169 -0.893,-24.52 -0.344,-2.138 -1.521,-4.039 -3.593,-4.666 L -101.7,4.448 c -2.668,-0.832 -5.229,-2.02 -7.48,-3.676 -11.761,-8.654 -12.099,-22.817 -12.587,-25.452 -0.042,-0.226 0.131,-0.429 0.36,-0.429 h 66.312 66.313 c 0.229,0 0.402,0.203 0.36,0.429 C 11.105,-22.122 10.932,-8.7 0,0" />
    </g>
    <g
       transform="matrix(0.19195399,0,0,-0.19195399,75.465692,138.35454)"
       id="g5129">
      <path
         inkscape:connector-curvature="0"
         id="path5127"
         style="fill:#efbc8b;fill-opacity:1;fill-rule:nonzero;stroke:none"
         d="m 0,0 c -0.122,5.43 -0.082,10.59 -0.067,11.969 0.002,0.203 -0.162,0.359 -0.365,0.359 h -25.515 c -0.203,0 -0.367,-0.156 -0.365,-0.359 0.013,-1.377 0.047,-6.518 -0.08,-11.964 C -17.859,-2.918 -8.534,-2.92 0,0" />
    </g>
    <g
       transform="matrix(0.19195399,0,0,-0.19195399,67.029986,129.45739)"
       id="g5133">
      <path
         inkscape:connector-curvature="0"
         id="path5131"
         style="fill:#f7d9b5;fill-opacity:1;fill-rule:nonzero;stroke:none"
         d="m 0,0 c 2.295,-5.452 0.988,-13.974 -2.921,-15.619 -3.908,-1.646 -8.937,4.208 -11.233,9.659 -2.295,5.452 -0.988,11.205 2.921,12.851 C -7.325,8.537 -2.296,5.451 0,0" />
    </g>
    <g
       transform="matrix(0.19195399,0,0,-0.19195399,78.837863,129.45739)"
       id="g5137">
      <path
         inkscape:connector-curvature="0"
         id="path5135"
         style="fill:#f7d9b5;fill-opacity:1;fill-rule:nonzero;stroke:none"
         d="m 0,0 c -2.295,-5.452 -0.988,-13.974 2.921,-15.619 3.908,-1.646 8.937,4.208 11.233,9.659 2.295,5.452 0.988,11.205 -2.921,12.851 C 7.325,8.537 2.295,5.451 0,0" />
    </g>
    <g
       transform="matrix(0.19195399,0,0,-0.19195399,72.933916,119.1237)"
       id="g5141">
      <path
         inkscape:connector-curvature="0"
         id="path5139"
         style="fill:#f7d9b5;fill-opacity:1;fill-rule:nonzero;stroke:none"
         d="m 0,0 c -39.13,1.534 -39.697,-35.794 -39.113,-48.066 0.424,-8.909 3.924,-21.861 5.811,-28.29 1.084,-3.693 3.048,-7.101 5.862,-9.786 C -17.226,-95.888 0,-99.2 0,-99.2 c 0,0 17.226,3.312 27.44,13.058 2.814,2.685 4.778,6.093 5.862,9.786 1.887,6.429 5.387,19.381 5.811,28.29 C 39.697,-35.794 39.13,1.534 0,0" />
    </g>
    <g
       transform="matrix(0.19195399,0,0,-0.19195399,69.011316,131.71631)"
       id="g5145">
      <path
         inkscape:connector-curvature="0"
         id="path5143"
         style="fill:#efab84;fill-opacity:1;fill-rule:nonzero;stroke:none"
         d="m 0,0 c 0,-3.13 -2.537,-5.667 -5.667,-5.667 -3.13,0 -5.667,2.537 -5.667,5.667 0,3.13 2.537,5.667 5.667,5.667 C -2.537,5.667 0,3.13 0,0" />
    </g>
    <g
       transform="matrix(0.19195399,0,0,-0.19195399,78.624641,131.71631)"
       id="g5149">
      <path
         inkscape:connector-curvature="0"
         id="path5147"
         style="fill:#efab84;fill-opacity:1;fill-rule:nonzero;stroke:none"
         d="m 0,0 c 0,-3.13 -2.537,-5.667 -5.667,-5.667 -3.13,0 -5.667,2.537 -5.667,5.667 0,3.13 2.537,5.667 5.667,5.667 C -2.537,5.667 0,3.13 0,0" />
    </g>
    <g
       transform="matrix(0.19195399,0,0,-0.19195399,71.014473,133.71547)"
       id="g5153">
      <path
         inkscape:connector-curvature="0"
         id="path5151"
         style="fill:#ffffff;fill-opacity:1;fill-rule:nonzero;stroke:none"
         d="m 0,0 c 1.725,-3.807 5.548,-6.46 9.999,-6.46 4.452,0 8.276,2.653 10,6.46 z" />
    </g>
    <g
       transform="matrix(0.19195399,0,0,-0.19195399,71.014473,133.71547)"
       id="g5157">
      <path
         inkscape:connector-curvature="0"
         id="path5155"
         style="fill:none;stroke:#d6702b;stroke-width:1.38300002;stroke-linecap:butt;stroke-linejoin:miter;stroke-miterlimit:10;stroke-dasharray:none;stroke-opacity:1"
         d="m 0,0 c 1.725,-3.807 5.548,-6.46 9.999,-6.46 4.452,0 8.276,2.653 10,6.46 z" />
    </g>
    <g
       style="fill:#3a1e0b;fill-opacity:1"
       transform="matrix(0.19195399,0,0,-0.19195399,-21.040021,204.27373)"
       id="g5167">
      <g
         style="fill:#3a1e0b;fill-opacity:1"
         id="g5165">
        <g
           style="fill:#3a1e0b;fill-opacity:1"
           id="g5163">
          <g
             style="fill:#3a1e0b;fill-opacity:1"
             id="g5161">
            <path
               inkscape:connector-curvature="0"
               id="path5159"
               style="fill:#3a1e0b;fill-opacity:1;stroke:none"
               d="m 484.869,434.158 c -0.077,-9.186 -0.152,-18.372 -0.229,-27.558 v 0 c 4.331,3.784 8.709,7.619 11.989,12.342 v 0 c 4.79,6.895 7.89,19.265 -0.015,25.42 v 0 c -2.001,1.558 -3.711,2.217 -5.157,2.218 v 0 c -4.624,0 -6.541,-6.743 -6.588,-12.422" />
          </g>
        </g>
      </g>
    </g>
    <g
       style="fill:url(#linearGradient6912);fill-opacity:1"
       transform="matrix(0.19195399,0,0,-0.19195399,-21.040021,204.27373)"
       id="g5177">
      <g
         style="fill:url(#linearGradient6910);fill-opacity:1"
         id="g5175">
        <g
           style="fill:url(#linearGradient6908);fill-opacity:1"
           id="g5173">
          <g
             style="fill:url(#linearGradient6906);fill-opacity:1"
             id="g5171">
            <path
               inkscape:connector-curvature="0"
               id="path5169"
               style="fill:#3a1e0b;fill-opacity:1;stroke:none"
               d="m 459.534,438.008 c -8.527,-8.227 -10.965,-20.803 -11.203,-32.188 v 0 c -0.159,-7.606 1.112,-16.26 7.353,-20.611 v 0 c -2.08,10.769 -0.007,22.158 5.226,31.747 v 0 c 2.785,5.104 21.118,18.75 20.909,22.271 v 0 c -0.226,3.819 -2.704,5.156 -5.946,5.157 v 0 c -5.889,10e-4 -14.302,-4.411 -16.339,-6.376" />
          </g>
        </g>
      </g>
    </g>
    <g
       style="fill:#3a1e0b;fill-opacity:1"
       transform="matrix(0.19195399,0,0,-0.19195399,-21.040021,204.27373)"
       id="g5187">
      <g
         style="fill:#3a1e0b;fill-opacity:1"
         id="g5185">
        <g
           style="fill:#3a1e0b;fill-opacity:1"
           id="g5183">
          <g
             style="fill:#3a1e0b;fill-opacity:1"
             id="g5181">
            <path
               inkscape:connector-curvature="0"
               id="path5179"
               style="fill:#3a1e0b;fill-opacity:1;stroke:none"
               d="m 510.039,435.635 c -3.281,-8.12 6.632,-16.954 9.58,-24.084 v 0 c 3.995,-9.664 5.567,-20.352 4.409,-30.751 v 0 c 5.541,7.604 9.714,16.386 10.861,25.725 v 0 c 1.134,9.234 -0.879,19.288 -6.772,26.666 v 0 c -2.913,3.647 -7.674,7.613 -11.821,7.614 v 0 c -2.48,0 -4.74,-1.418 -6.257,-5.17" />
          </g>
        </g>
      </g>
    </g>
    <g
       style="fill:#3a1e0b;fill-opacity:1"
       transform="matrix(0.19195399,0,0,-0.19195399,-21.040021,204.27373)"
       id="g5197">
      <g
         style="fill:#3a1e0b;fill-opacity:1"
         id="g5195">
        <g
           style="fill:#3a1e0b;fill-opacity:1"
           id="g5193">
          <g
             style="fill:#3a1e0b;fill-opacity:1"
             id="g5191">
            <path
               inkscape:connector-curvature="0"
               id="path5189"
               style="fill:#3a1e0b;fill-opacity:1;stroke:none"
               d="m 467.249,428.999 c -4.195,-7.272 -5.164,-16.332 -2.601,-24.327 v 0 c 0.216,5.412 4.154,9.935 8.353,13.355 v 0 c 4.199,3.42 8.972,6.338 12.054,10.791 v 0 c 3.008,4.347 5.723,16.531 -1.053,17.239 v 0 c -0.119,0.013 -0.24,0.019 -0.362,0.019 v 0 c -5.64,10e-4 -14.086,-13.082 -16.391,-17.077" />
          </g>
        </g>
      </g>
    </g>
    <g
       style="fill:#3a1e0b;fill-opacity:1"
       transform="matrix(0.19195399,0,0,-0.19195399,-21.040021,204.27373)"
       id="g5207">
      <g
         style="fill:#3a1e0b;fill-opacity:1"
         id="g5205">
        <g
           style="fill:#3a1e0b;fill-opacity:1"
           id="g5203">
          <g
             style="fill:#3a1e0b;fill-opacity:1"
             id="g5201">
            <path
               inkscape:connector-curvature="0"
               id="path5199"
               style="fill:#3a1e0b;fill-opacity:1;stroke:none"
               d="m 497.277,432.887 c 0.963,-3.614 2.68,-6.853 4.027,-10.283 v 0 c 1.345,-3.43 2.337,-7.277 1.703,-10.996 v 0 c 3.504,3.368 6.98,6.951 9.337,11.55 v 0 c 4.09,7.983 3.45,20.571 -5.196,23.907 v 0 c -1.029,0.397 -2.003,0.581 -2.912,0.581 v 0 c -5.769,0 -8.917,-7.412 -6.959,-14.759" />
          </g>
        </g>
      </g>
    </g>
    <g
       transform="matrix(0.19840142,0,0,-0.18857918,63.702762,143.15764)"
       id="g5211">
      <path
         inkscape:connector-curvature="0"
         id="path5209"
         style="fill:#38638c;fill-opacity:1;fill-rule:nonzero;stroke:none"
         d="m 0,0 c -2.668,-0.832 -5.229,-2.019 -7.48,-3.675 -11.761,-8.655 -12.099,-22.817 -12.587,-25.453 -0.041,-0.225 0.131,-0.429 0.36,-0.429 H 4.926 l 4.031,32.35 z" />
    </g>
    <g
       style="fill:#38638c;fill-opacity:1"
       transform="matrix(0.19626672,0,0,-0.18857918,83.617025,143.99639)"
       id="g5215">
      <path
         inkscape:connector-curvature="0"
         id="path5213"
         style="fill:#38638c;fill-opacity:1;fill-rule:nonzero;stroke:none;stroke-width:1.00542355"
         d="M 1.3410426,0 C -1.2265836,2.022 -4.1874409,3.506 -7.321158,4.473 l -8.973551,2.767 4.074843,-32.349 h 24.900921 c 0.231491,0 0.406372,0.203 0.363915,0.429 C 12.566826,-22.122 12.391944,-8.7 1.3410426,0" />
    </g>
    <g
       style="fill:#38638c;fill-opacity:1"
       transform="matrix(0.19840142,0,0,-0.18857918,79.315884,142.30404)"
       id="g5219">
      <path
         inkscape:connector-curvature="0"
         id="path5217"
         style="fill:#38638c;fill-opacity:1;fill-rule:nonzero;stroke:none"
         d="m 0,0 v -17.415 l -32.089,-9.086 -32.089,9.086 V 0 l -5.56,-1.734 -4.031,-32.35 h 41.352 0.328 0.328 41.352 L 5.56,-1.734 Z" />
    </g>
    <path
       inkscape:connector-curvature="0"
       id="path5221"
       style="fill:#332113;fill-opacity:1;fill-rule:nonzero;stroke:none;stroke-width:0.19195399"
       d="m 69.159899,128.18362 c 0.513285,0 0.929439,0.51559 0.929439,1.15172 0,0.63614 -0.416154,1.15173 -0.929439,1.15173 -0.513284,0 -0.929442,-0.51559 -0.929442,-1.15173 0,-0.63613 0.416158,-1.15172 0.929442,-1.15172" />
    <g
       transform="matrix(0.19195399,0,0,-0.19195399,76.707971,128.18362)"
       id="g5225">
      <path
         inkscape:connector-curvature="0"
         id="path5223"
         style="fill:#332113;fill-opacity:1;fill-rule:nonzero;stroke:none"
         d="m 0,0 c 2.674,0 4.842,-2.686 4.842,-6 0,-3.314 -2.168,-6 -4.842,-6 -2.674,0 -4.842,2.686 -4.842,6 0,3.314 2.168,6 4.842,6" />
    </g>
  </g>
</svg>
