<?xml version="1.0" encoding="UTF-8" standalone="no"?>
<!-- Created with Inkscape (http://www.inkscape.org/) -->

<svg
   xmlns:dc="http://purl.org/dc/elements/1.1/"
   xmlns:cc="http://creativecommons.org/ns#"
   xmlns:rdf="http://www.w3.org/1999/02/22-rdf-syntax-ns#"
   xmlns:svg="http://www.w3.org/2000/svg"
   xmlns="http://www.w3.org/2000/svg"
   xmlns:sodipodi="http://sodipodi.sourceforge.net/DTD/sodipodi-0.dtd"
   xmlns:inkscape="http://www.inkscape.org/namespaces/inkscape"
   width="26.458332mm"
   height="31.689396mm"
   viewBox="0 0 26.458332 31.689396"
   version="1.1"
   id="svg5931"
   inkscape:version="0.92.0 r15299"
   sodipodi:docname="Judy.svg">
  <defs
     id="defs5925">
    <linearGradient
       x1="0"
       y1="0"
       x2="1"
       y2="0"
       gradientUnits="userSpaceOnUse"
       gradientTransform="matrix(0,-43.690659,-43.690659,0,489.56494,221.42065)"
       spreadMethod="pad"
       id="linearGradient9580">
      <stop
         style="stop-opacity:1;stop-color:#3a1e0b"
         offset="0"
         id="stop9572" />
      <stop
         style="stop-opacity:1;stop-color:#3a1e0b"
         offset="0.326316"
         id="stop9574" />
      <stop
         style="stop-opacity:1;stop-color:#3a1e0b"
         offset="0.77670697"
         id="stop9576" />
      <stop
         style="stop-opacity:1;stop-color:#904f22"
         offset="1"
         id="stop9578" />
    </linearGradient>
  </defs>
  <sodipodi:namedview
     id="base"
     pagecolor="#ffffff"
     bordercolor="#666666"
     borderopacity="1.0"
     inkscape:pageopacity="0.0"
     inkscape:pageshadow="2"
     inkscape:zoom="2.8"
     inkscape:cx="-12.078802"
     inkscape:cy="30.256955"
     inkscape:document-units="mm"
     inkscape:current-layer="layer1"
     showgrid="false"
     fit-margin-top="0"
     fit-margin-left="0"
     fit-margin-right="0"
     fit-margin-bottom="0"
     inkscape:window-width="1366"
     inkscape:window-height="705"
     inkscape:window-x="-8"
     inkscape:window-y="-8"
     inkscape:window-maximized="1" />
  <metadata
     id="metadata5928">
    <rdf:RDF>
      <cc:Work
         rdf:about="">
        <dc:format>image/svg+xml</dc:format>
        <dc:type
           rdf:resource="http://purl.org/dc/dcmitype/StillImage" />
        <dc:title />
      </cc:Work>
    </rdf:RDF>
  </metadata>
  <g
     inkscape:label="Layer 1"
     inkscape:groupmode="layer"
     id="layer1"
     transform="translate(-58.628907,-117.91509)"
     style="opacity:0.98">
    <g
       id="g5254">
      <g
         style="fill:#181111;fill-opacity:1;stroke:none"
         transform="matrix(0.19195399,0,0,-0.19195399,-22.131352,205.07517)"
         id="g8820-7-7-3">
        <g
           style="fill:#181111;fill-opacity:1;stroke:none"
           id="g8822-9-1-1">
          <g
             style="fill:#181111;fill-opacity:1;stroke:none"
             id="g8828-3-9-7">
            <g
               style="fill:#181111;fill-opacity:1;stroke:none"
               id="g8830-1-0-2">
              <path
                 inkscape:connector-curvature="0"
                 id="path8840-1-2-2"
                 style="fill:#181111;fill-opacity:1;stroke:none"
                 d="m 492.534,377.046 c -9.265,-16.879 -12.203,-37.136 -8.118,-55.951 v 0 c 1.588,-7.31 4.325,-14.605 9.472,-20.034 v 0 c 5.147,-5.428 13.077,-8.651 20.293,-6.679 v 0 c 6.155,1.682 10.9,6.83 13.586,12.619 v 0 c 2.687,5.788 3.602,12.218 4.378,18.551 v 0 c 1.694,13.839 2.87,27.741 3.525,41.668 v 0 c 0.482,10.248 4.756,31.547 0.434,40.87 v 0 c -1.158,2.499 -2.986,3.565 -5.253,3.565 v 0 c -11.56,-0.002 -34.535,-27.719 -38.317,-34.609" />
            </g>
          </g>
        </g>
      </g>
      <g
         style="fill:#181111;fill-opacity:1"
         transform="matrix(0.19195399,0,0,-0.19195399,-22.131352,205.07517)"
         id="g8842-5-1-9">
        <g
           style="fill:#181111;fill-opacity:1"
           id="g8844-3-6-0">
          <g
             style="fill:#181111;fill-opacity:1"
             id="g8850-5-2-8">
            <g
               style="fill:#181111;fill-opacity:1"
               id="g8852-0-0-7">
              <path
                 inkscape:connector-curvature="0"
                 id="path8862-9-8-3"
                 style="fill:#181111;fill-opacity:1;stroke:none"
                 d="m 441.4,408.09 c -4.32,-9.323 -0.047,-30.622 0.435,-40.87 v 0 c 0.655,-13.927 1.83,-27.829 3.526,-41.668 v 0 c 0.775,-6.333 1.691,-12.763 4.377,-18.551 v 0 c 2.687,-5.789 7.43,-10.937 13.586,-12.619 v 0 c 7.216,-1.972 15.147,1.251 20.294,6.679 v 0 c 5.146,5.429 7.883,12.724 9.47,20.034 v 0 c 4.086,18.815 1.148,39.072 -8.117,55.951 v 0 c -3.782,6.89 -26.756,34.607 -38.317,34.609 v 0 c -2.268,0 -4.095,-1.066 -5.254,-3.565" />
            </g>
          </g>
        </g>
      </g>
      <g
         style="fill:#181111;fill-opacity:1;stroke:none"
         transform="matrix(0.19195399,0,0,-0.19195399,80.984335,126.56473)"
         id="g8872-0-4-9">
        <path
           inkscape:connector-curvature="0"
           id="path8874-5-6-5"
           style="fill:#181111;fill-opacity:1;fill-rule:nonzero;stroke:none"
           d="m 0,0 c -0.682,9.448 -3.303,18.972 -9.114,26.785 -8.577,11.531 -24.067,18.276 -39.241,18.276 -15.175,0 -30.665,-6.745 -39.242,-18.276 C -93.408,18.972 -96.029,9.448 -96.711,0 c -0.19,-2.629 -0.924,-6.992 -0.001,-11.826 4.662,-24.422 19.505,-42.611 44.709,-45.461 1.357,-0.153 2.584,-0.237 3.648,-0.237 1.063,0 2.29,0.084 3.647,0.237 25.204,2.85 38.451,19.009 44.709,45.461 C 1.134,-7.037 0.19,-2.629 0,0" />
      </g>
      <g
         style=""
         transform="matrix(0.19195399,0,0,-0.19195399,82.418212,144.78471)"
         id="g8876-3-5-0">
        <path
           inkscape:connector-curvature="0"
           id="path8878-4-2-7"
           style="fill:#f7d9b5;fill-opacity:1;fill-rule:nonzero;stroke:none"
           d="m 0,0 c -2.54,2.022 -5.469,3.506 -8.569,4.473 l -28.917,9.017 c -2.072,0.627 -3.223,2.533 -3.593,4.666 -1.044,6.033 -0.921,21.931 -0.893,24.521 0.002,0.203 -0.162,0.359 -0.366,0.359 h -25.514 c -0.203,0 -0.367,-0.156 -0.365,-0.36 0.024,-2.563 0.128,-18.169 -0.893,-24.52 -0.344,-2.138 -1.521,-4.039 -3.593,-4.666 L -101.7,4.448 c -2.668,-0.832 -5.229,-2.02 -7.48,-3.676 -11.761,-8.654 -12.099,-22.817 -12.587,-25.452 -0.042,-0.226 0.131,-0.429 0.36,-0.429 h 66.312 66.313 c 0.229,0 0.402,0.203 0.36,0.429 C 11.105,-22.122 10.932,-8.7 0,0" />
      </g>
      <g
         style=""
         transform="matrix(0.19195399,0,0,-0.19195399,82.418212,144.78471)"
         id="g8880-6-9-5">
        <path
           inkscape:connector-curvature="0"
           id="path8882-4-1-4"
           style="fill:#f7d9b5;fill-opacity:1;fill-rule:nonzero;stroke:none"
           d="m 0,0 c -2.54,2.022 -5.469,3.506 -8.569,4.473 l -28.917,9.017 c -2.072,0.627 -3.223,2.533 -3.593,4.666 -1.044,6.033 -0.921,21.931 -0.893,24.521 0.002,0.203 -0.162,0.359 -0.366,0.359 h -25.514 c -0.203,0 -0.367,-0.156 -0.365,-0.36 0.024,-2.563 0.128,-18.169 -0.893,-24.52 -0.344,-2.138 -1.521,-4.039 -3.593,-4.666 L -101.7,4.448 c -2.668,-0.832 -5.229,-2.02 -7.48,-3.676 -11.761,-8.654 -12.099,-22.817 -12.587,-25.452 -0.042,-0.226 0.131,-0.429 0.36,-0.429 h 66.312 66.313 c 0.229,0 0.402,0.203 0.36,0.429 C 11.105,-22.122 10.932,-8.7 0,0" />
      </g>
      <g
         style=""
         transform="matrix(0.19195399,0,0,-0.19195399,74.374361,139.15599)"
         id="g8884-0-3-0">
        <path
           inkscape:connector-curvature="0"
           id="path8886-3-4-0"
           style="fill:#efbc8b;fill-opacity:1;fill-rule:nonzero;stroke:none"
           d="m 0,0 c -0.122,5.43 -0.082,10.59 -0.067,11.969 0.002,0.203 -0.162,0.359 -0.365,0.359 h -25.515 c -0.203,0 -0.367,-0.156 -0.365,-0.359 0.013,-1.377 0.047,-6.518 -0.08,-11.964 C -17.859,-2.918 -8.534,-2.92 0,0" />
      </g>
      <g
         style=""
         transform="matrix(0.19195399,0,0,-0.19195399,71.842584,119.92515)"
         id="g8896-7-1-4">
        <path
           inkscape:connector-curvature="0"
           id="path8898-4-6-4"
           style="fill:#f7d9b5;fill-opacity:1;fill-rule:nonzero;stroke:none"
           d="m 0,0 c -39.13,1.534 -39.697,-35.794 -39.113,-48.066 0.424,-8.909 3.924,-21.861 5.811,-28.29 1.084,-3.693 3.048,-7.101 5.862,-9.786 C -17.226,-95.888 0,-99.2 0,-99.2 c 0,0 17.226,3.312 27.44,13.058 2.814,2.685 4.778,6.093 5.862,9.786 1.887,6.429 5.387,19.381 5.811,28.29 C 39.697,-35.794 39.13,1.534 0,0" />
      </g>
      <g
         style=""
         transform="matrix(0.19195399,0,0,-0.19195399,67.919985,132.51776)"
         id="g8900-9-9-2">
        <path
           inkscape:connector-curvature="0"
           id="path8902-4-1-7"
           style="fill:#efab84;fill-opacity:1;fill-rule:nonzero;stroke:none"
           d="m 0,0 c 0,-3.13 -2.537,-5.667 -5.667,-5.667 -3.13,0 -5.667,2.537 -5.667,5.667 0,3.13 2.537,5.667 5.667,5.667 C -2.537,5.667 0,3.13 0,0" />
      </g>
      <g
         style=""
         transform="matrix(0.19195399,0,0,-0.19195399,77.533309,132.51776)"
         id="g8904-7-2-3">
        <path
           inkscape:connector-curvature="0"
           id="path8906-7-7-3"
           style="fill:#efab84;fill-opacity:1;fill-rule:nonzero;stroke:none"
           d="m 0,0 c 0,-3.13 -2.537,-5.667 -5.667,-5.667 -3.13,0 -5.667,2.537 -5.667,5.667 0,3.13 2.537,5.667 5.667,5.667 C -2.537,5.667 0,3.13 0,0" />
      </g>
      <g
         style=""
         transform="matrix(0.19195399,0,0,-0.19195399,69.92314,134.51692)"
         id="g8916-8-4-0">
        <path
           inkscape:connector-curvature="0"
           id="path8918-2-9-2"
           style="fill:#ffffff;fill-opacity:1;fill-rule:nonzero;stroke:none"
           d="m 0,0 c 1.725,-3.807 5.548,-6.46 9.999,-6.46 4.452,0 8.276,2.653 10,6.46 z" />
      </g>
      <g
         style=""
         transform="matrix(0.19195399,0,0,-0.19195399,69.92314,134.51692)"
         id="g8920-5-5-6">
        <path
           inkscape:connector-curvature="0"
           id="path8922-6-9-7"
           style="fill:none;stroke:#d6702b;stroke-width:1.38300002;stroke-linecap:butt;stroke-linejoin:miter;stroke-miterlimit:10;stroke-dasharray:none;stroke-opacity:1"
           d="m 0,0 c 1.725,-3.807 5.548,-6.46 9.999,-6.46 4.452,0 8.276,2.653 10,6.46 z" />
      </g>
      <g
         style="fill:#d3d3df;fill-opacity:0.94117647;stroke:none;stroke-opacity:1"
         transform="matrix(0.19840142,0,0,-0.18857918,62.611432,143.95909)"
         id="g8550-7-1-0">
        <path
           inkscape:connector-curvature="0"
           id="path8552-4-5-6"
           style="fill:#d3d3df;fill-opacity:0.94117647;fill-rule:nonzero;stroke:none;stroke-opacity:1"
           d="m 0,0 c -2.668,-0.832 -5.229,-2.019 -7.48,-3.675 -11.761,-8.655 -12.099,-22.817 -12.587,-25.453 -0.041,-0.225 0.131,-0.429 0.36,-0.429 H 4.926 l 4.031,32.35 z" />
      </g>
      <g
         style="fill:#d3d3df;fill-opacity:0.94117647;stroke:none"
         transform="matrix(0.19626672,0,0,-0.18857918,82.525695,144.79784)"
         id="g8558-6-8-4">
        <path
           inkscape:connector-curvature="0"
           id="path8560-3-6-2"
           style="fill:#d3d3df;fill-opacity:0.94117647;fill-rule:nonzero;stroke:none;stroke-width:1.00542355;stroke-opacity:1"
           d="M 1.3410426,0 C -1.2265836,2.022 -4.1874409,3.506 -7.321158,4.473 l -8.973551,2.767 4.074843,-32.349 h 24.900921 c 0.231491,0 0.406372,0.203 0.363915,0.429 C 12.566826,-22.122 12.391944,-8.7 1.3410426,0" />
      </g>
      <path
         d="m 78.224553,143.10549 -0.650692,1.65738 -6.297672,1.71725 -5.784643,-1.71725 v -1.65738 l -1.103112,0.32699 -0.799755,6.10054 h 8.204294 0.06508 0.06508 8.204295 l -0.799757,-6.10054 z"
         style="fill:#d3d3df;fill-opacity:0.94117647;fill-rule:nonzero;stroke:none;stroke-width:0.19342795;stroke-opacity:1"
         id="path8564-2-0-2"
         inkscape:connector-curvature="0"
         sodipodi:nodetypes="ccccccccccccc" />
      <path
         inkscape:connector-curvature="0"
         id="path9618-9-5-9-6"
         style="fill:#332113;fill-opacity:1;fill-rule:nonzero;stroke:none;stroke-width:0.19195397"
         d="m 68.068567,128.98507 c 0.513285,0 0.929441,0.51559 0.929441,1.15172 0,0.63614 -0.416156,1.15173 -0.929441,1.15173 -0.513285,0 -0.929442,-0.51559 -0.929442,-1.15173 0,-0.63613 0.416157,-1.15172 0.929442,-1.15172" />
      <g
         style=""
         transform="matrix(0.19195399,0,0,-0.19195399,75.616641,128.98507)"
         id="g9620-5-7-8-7">
        <path
           inkscape:connector-curvature="0"
           id="path9622-7-3-7-1"
           style="fill:#332113;fill-opacity:1;fill-rule:nonzero;stroke:none"
           d="m 0,0 c 2.674,0 4.842,-2.686 4.842,-6 0,-3.314 -2.168,-6 -4.842,-6 -2.674,0 -4.842,2.686 -4.842,6 0,3.314 2.168,6 4.842,6" />
      </g>
      <path
         sodipodi:nodetypes="cscccccccccccssccsccscc"
         inkscape:connector-curvature="0"
         id="path15962"
         d="m 62.922405,129.83613 c 0.01977,-0.1065 0.427213,-1.8312 0.905433,-3.83267 l 0.869492,-3.63903 2.221866,-1.37966 2.221865,-1.37966 2.701523,0.32004 2.129616,-0.64173 1.770466,0.73358 c 1.133114,0.46949 1.790678,0.7727 1.826611,0.84226 0.03088,0.0598 0.51183,1.26953 1.068779,2.68835 0.853224,2.17358 1.102501,2.8833 1.583542,4.50849 0.314002,1.06084 0.558757,1.94141 0.543898,1.9568 -0.03608,0.0374 -1.529423,-0.85098 -2.247444,-1.33696 -0.906049,-0.61323 -1.45403,-1.06574 -2.072769,-1.71161 -0.678025,-0.70775 -1.098894,-1.3077 -1.882857,-2.68403 -0.720335,-1.26462 -2.470383,-3.94052 -2.719842,-4.35515 -0.245062,-0.40731 0.24506,-0.40731 0,0 -0.249462,0.41463 -1.996276,3.09053 -2.716612,4.35515 -0.783963,1.37633 -1.204834,1.97628 -1.882858,2.68403 -0.618738,0.64587 -1.166719,1.09838 -2.072769,1.71161 -0.594159,0.40215 -2.17075,1.35382 -2.242802,1.35382 -0.02259,0 -0.02491,-0.0871 -0.0051,-0.19363 z"
         style="fill:#181111;fill-opacity:1;fill-rule:evenodd;stroke:#181111;stroke-width:0.05853762;stroke-linecap:round;stroke-linejoin:round;stroke-miterlimit:4;stroke-dasharray:none;stroke-opacity:1;paint-order:fill markers stroke" />
    </g>
  </g>
</svg>
